<svg width="30" height="30" viewBox="0 0 30 30" fill="none" xmlns="http://www.w3.org/2000/svg">
<path d="M27.4999 13.7502V15.0002C27.4872 17.5231 26.7114 19.9831 25.2745 22.0568C23.8376 24.1306 21.8068 25.721 19.4491 26.619C17.0913 27.5169 14.5171 27.6804 12.0647 27.088C9.6123 26.4955 7.39659 25.1749 5.70883 23.2996C4.02108 21.4243 2.94029 19.0822 2.60854 16.5812C2.2768 14.0801 2.70963 11.5373 3.85014 9.28682C4.99064 7.03639 6.78543 5.18375 8.99856 3.97245C11.2117 2.76115 13.7396 2.24789 16.2499 2.50015" stroke="#FFA629" stroke-width="3" stroke-linecap="round" stroke-linejoin="round"/>
<path d="M10 17.5C10 17.5 11.875 20 15 20C18.125 20 20 17.5 20 17.5" stroke="#FFA629" stroke-width="3" stroke-linecap="round" stroke-linejoin="round"/>
<path d="M11.25 11.25H11.2625" stroke="#FFA629" stroke-width="3" stroke-linecap="round" stroke-linejoin="round"/>
<path d="M18.75 11.25H18.7625" stroke="#FFA629" stroke-width="3" stroke-linecap="round" stroke-linejoin="round"/>
<path d="M20 6.25H27.5" stroke="#FFA629" stroke-width="3" stroke-linecap="round" stroke-linejoin="round"/>
<path d="M23.75 2.5V10" stroke="#FFA629" stroke-width="3" stroke-linecap="round" stroke-linejoin="round"/>
</svg>
