<svg width="1486" height="1109" viewBox="0 0 1486 1109" fill="none" xmlns="http://www.w3.org/2000/svg">
<path d="M291.354 647.175C234.258 651.015 130.648 578.002 85.1151 529.447L85.115 895.5L1364.13 895.5L1364.13 166.247L1337.66 170.784C1325.12 171.018 1285.07 179.549 1225.18 211.806C1165.3 244.063 1126.09 304.429 1113.98 330.58L1057.5 416.996C1018.65 471.666 960.199 536.754 875.938 556.445C770.612 581.058 677.281 449.318 653.871 431.99C630.46 414.663 602.417 382.534 551.499 391.259C500.581 399.984 474.309 439.367 451.161 478.625C422.153 531.609 382.032 641.076 291.354 647.175Z" fill="#279AF1"/>
<path d="M306.492 623.837C255.574 632.561 216.728 598.558 180.856 563.566C156.472 538.28 112.112 488.045 84.612 428.958L84.612 166.958L1087.61 166.958C1048.01 192.958 993.779 300.125 971.612 350.458C942.612 432.958 889.157 455.485 865.112 462.958C828.112 474.458 772.996 449.607 753.612 432.958C697.451 386.615 637.495 315.891 551.34 324.53C443.647 335.33 397.692 511.799 387.856 541.969C378.02 572.139 357.411 615.112 306.492 623.837Z" fill="#FFD22F"/>
</svg>
